<svg width="1024" height="137" viewBox="0 0 1024 137" fill="none" xmlns="http://www.w3.org/2000/svg">
<path fill-rule="evenodd" clip-rule="evenodd" d="M229.812 0.101852H227.602C215.97 0.0837402 206.53 9.50557 206.53 21.1379V68.1836C206.53 77.5783 198.766 85.1883 189.525 85.1883C184.035 85.1883 178.554 82.4251 175.302 77.7867L127.25 9.16132C123.264 3.46292 116.778 0.0656128 109.757 0.0656128C98.8036 0.0656128 88.947 9.37874 88.947 20.8752V68.1927C88.947 77.5874 81.2464 85.1973 71.9424 85.1973C66.4342 85.1973 60.9623 82.4342 57.71 77.7957L3.94208 1.0078C2.72815 -0.722549 0.0012207 0.129028 0.0012207 2.24895V43.2792C0.0012207 45.3538 0.635376 47.3651 1.8222 49.0682L54.7294 124.633C57.8549 129.099 62.4662 132.415 67.7841 133.62C81.0924 136.646 93.3408 126.4 93.3408 113.345V66.0547C93.3408 56.66 100.951 49.0501 110.345 49.0501H110.373C116.035 49.0501 121.344 51.8132 124.596 56.4516L172.647 125.068C176.642 130.775 182.794 134.164 190.132 134.164C201.33 134.164 210.923 124.841 210.923 113.354V66.0456C210.923 56.651 218.533 49.041 227.928 49.041H229.803C230.981 49.041 231.932 48.0898 231.932 46.9121V2.22177C231.932 1.04404 230.981 0.0927887 229.803 0.0927887L229.812 0.101852ZM505.663 35.5062H493.904C492.708 35.5062 491.739 36.4756 491.739 37.6714V131.98C491.739 133.176 492.708 134.146 493.904 134.146H505.663C506.859 134.146 507.828 133.176 507.828 131.98V37.6714C507.828 36.4756 506.859 35.5062 505.663 35.5062ZM493.514 0.0746765H506.044C507.239 0.0746765 508.209 1.04405 508.209 2.2399V17.641C508.209 18.8368 507.239 19.8062 506.044 19.8062H493.514C492.318 19.8062 491.349 18.8368 491.349 17.641V2.2399C491.349 1.04405 492.318 0.0746765 493.514 0.0746765ZM576.047 32.8246C562.83 32.8246 553.254 37.4178 547.121 44.1308C545.155 46.1239 541.757 44.7287 541.757 41.9294V37.6714C541.757 36.4756 540.788 35.5062 539.592 35.5062H528.032C526.837 35.5062 525.867 36.4756 525.867 37.6714V131.98C525.867 133.176 526.837 134.146 528.032 134.146H539.601C540.797 134.146 541.766 133.176 541.766 131.98V72.2785C541.766 51.5867 545.789 46.9936 567.822 46.9936C589.854 46.9936 593.487 50.6355 593.487 71.3182V131.971C593.487 133.167 594.456 134.136 595.652 134.136H607.411C608.607 134.136 609.577 133.167 609.577 131.971V66.9063C609.577 43.3427 596.169 32.8065 576.057 32.8065V32.8246H576.047ZM696.176 45.4716C698.142 47.4647 701.539 46.0695 701.539 43.2701V2.24893C701.539 1.05309 702.509 0.0837402 703.704 0.0837402H715.273C716.469 0.0837402 717.439 1.05309 717.439 2.24893V131.989C717.439 133.185 716.469 134.155 715.273 134.155H703.704C702.509 134.155 701.539 133.185 701.539 131.989V126.391C701.657 123.528 698.187 122.151 696.176 124.189C690.623 131.083 679.896 136.827 665.528 136.827C640.252 136.827 623.773 118.826 623.773 85.306C623.773 49.8745 642.155 32.8246 666.099 32.8246C680.467 32.8246 690.813 38.5773 696.176 45.4716ZM641.194 84.9165C641.194 117.286 645.217 122.078 671.462 122.078C697.517 122.078 701.539 117.286 701.539 84.9165C701.539 52.5471 697.707 47.5643 671.462 47.5643C645.217 47.5643 641.194 52.5471 641.194 84.9165ZM784.678 78.8013L765.726 75.549C751.738 73.0576 749.247 68.845 749.247 61.5612C749.437 51.5958 753.269 46.6221 771.85 46.6221C789.253 46.6221 794.825 51.7679 796.021 62.8748C796.139 63.971 797.063 64.8136 798.168 64.8136H809.664C810.896 64.8136 811.902 63.7808 811.829 62.5396C810.715 43.4695 793.258 32.8156 772.43 32.8156C749.057 32.8156 733.547 45.2632 733.547 63.0832C733.547 79.363 746.194 86.4566 761.323 89.3284L782.205 93.1606C793.702 95.2714 797.534 99.1036 797.534 106.378C797.534 118.065 793.511 123.048 773.78 123.048C754.048 123.048 748.594 117.358 747.326 105.826C747.208 104.729 746.284 103.896 745.179 103.896H733.61C732.396 103.896 731.409 104.902 731.436 106.116C731.989 126.662 750.615 136.845 772.81 136.845C796.945 136.845 813.605 124.398 813.605 105.617C813.605 89.1472 800.958 81.6732 784.678 78.8013ZM868.405 122.667C889.858 122.667 893.88 118.074 893.88 97.3822V37.6986C893.88 36.5028 894.849 35.5334 896.045 35.5334H907.804C909 35.5334 909.97 36.5028 909.97 37.6986V132.008C909.97 133.203 909 134.173 907.804 134.173H896.045C894.849 134.173 893.88 133.203 893.88 132.008V127.895C893.835 124.968 890.8 123.51 888.707 125.557C882.583 132.261 873.007 136.854 860.17 136.854C840.438 136.854 827.03 126.318 827.03 102.755V37.6895C827.03 36.4937 828 35.5243 829.196 35.5243H840.955C842.151 35.5243 843.12 36.4937 843.12 37.6895V98.3426C843.12 119.025 846.952 122.667 868.405 122.667ZM1004.06 35.5062V22.8592C1004.06 17.8856 1008.09 13.8541 1013.07 13.8541H1021.82C1023.01 13.8541 1023.98 12.8848 1023.98 11.6889V2.23083C1023.98 1.03499 1023.01 0.0656128 1021.82 0.0656128H1015.75C998.508 0.0656128 987.972 9.64146 987.972 26.1206V35.5062H975.225C963.928 35.5243 955.059 37.0735 949.143 44.1308C946.969 46.1873 943.97 44.6472 943.97 41.6576V37.6805C943.97 36.4846 943.001 35.5153 941.805 35.5153H930.046C928.85 35.5153 927.88 36.4846 927.88 37.6805V131.989C927.88 133.185 928.85 134.155 930.046 134.155H941.805C943.001 134.155 943.97 133.185 943.97 131.989V72.8674C943.97 53.3261 948.953 48.733 970.405 48.733H987.972V131.998C987.972 133.194 988.941 134.164 990.137 134.164H1001.9C1003.09 134.164 1004.06 133.194 1004.06 131.998V48.733H1021.84C1023.03 48.733 1024 47.7637 1024 46.5678V37.6895C1024 36.4937 1023.03 35.5243 1021.84 35.5243H1004.06V35.5062ZM426.267 109.549C426.683 111.28 428.233 112.503 430.008 112.503H430.017C431.784 112.503 433.324 111.298 433.75 109.585L460.72 1.71445C460.964 0.745071 461.834 0.0656128 462.831 0.0656128H476.293C477.734 0.0656128 478.784 1.42455 478.422 2.8197L444.494 132.578C444.25 133.493 443.425 134.136 442.474 134.136H418.457C417.488 134.136 416.646 133.475 416.401 132.542L388.217 24.0007C387.782 22.3066 386.251 21.1198 384.494 21.1198H384.249C382.5 21.1198 380.969 22.3066 380.526 24.0007L352.351 132.542C352.106 133.484 351.263 134.136 350.294 134.136H326.277C325.326 134.136 324.493 133.493 324.257 132.578L290.33 2.8197C289.967 1.42455 291.018 0.0656128 292.459 0.0656128H305.921C306.917 0.0656128 307.787 0.745071 308.032 1.71445L334.993 109.585C335.418 111.298 336.95 112.503 338.725 112.503C340.501 112.503 342.05 111.28 342.467 109.549L368.386 1.73257C368.621 0.75415 369.491 0.0656128 370.497 0.0656128H398.246C399.251 0.0656128 400.121 0.75415 400.357 1.73257L426.267 109.549Z" fill="white"/>
</svg>
