<?xml version="1.0" encoding="UTF-8" standalone="no"?>
<!-- Created with Inkscape (http://www.inkscape.org/) -->

<svg
   width="200"
   height="230"
   viewBox="0 0 52.916665 60.854167"
   version="1.1"
   id="svg2320"
   xmlns="http://www.w3.org/2000/svg"
   xmlns:svg="http://www.w3.org/2000/svg">
  <defs
     id="defs2317" />
  <g
     id="layer1">
    <path
       id="path4335-4"
       d="m 26.458765,60.853522 26.456525,-15.274929 1e-4,-30.549282 v 0 l -26.456559,-15.27470648 10e-5,-0.004323 -3.3e-5,0.004656 L 0.00250671,15.02965 v 30.549485 0 L 26.458831,60.853705 Z"
       style="color:#000000;clip-rule:nonzero;display:inline;overflow:visible;visibility:visible;isolation:auto;mix-blend-mode:normal;color-interpolation:sRGB;color-interpolation-filters:linearRGB;solid-color:#000000;solid-opacity:1;fill:none;fill-opacity:1;fill-rule:evenodd;stroke:none;stroke-width:0.223892;stroke-linecap:square;stroke-linejoin:round;stroke-miterlimit:4;stroke-dasharray:none;stroke-dashoffset:0;stroke-opacity:1;marker:none;marker-start:none;marker-mid:none;marker-end:none;color-rendering:auto;image-rendering:auto;shape-rendering:auto;text-rendering:auto;enable-background:accumulate" />
    <path
       id="path4328-4"
       d="m 26.458798,20.222023 8.997463,-5.194771 -8.997363,-5.1945879 -8.997364,5.1946839 z m 10e-5,-10.3893589 v -0.00146 l -10e-5,0.00145 10e-5,8.98e-5 z"
       style="color:#000000;clip-rule:nonzero;display:inline;overflow:visible;visibility:visible;isolation:auto;mix-blend-mode:normal;color-interpolation:sRGB;color-interpolation-filters:linearRGB;solid-color:#000000;solid-opacity:1;fill:#d73252;fill-opacity:1;fill-rule:evenodd;stroke:none;stroke-width:0.997701;stroke-linecap:round;stroke-linejoin:round;stroke-miterlimit:4;stroke-dasharray:none;stroke-dashoffset:0;stroke-opacity:1;marker:none;marker-start:none;marker-mid:none;marker-end:none;color-rendering:auto;image-rendering:auto;shape-rendering:auto;text-rendering:auto;enable-background:accumulate" />
    <path
       id="path4330-8"
       style="color:#000000;clip-rule:nonzero;display:inline;overflow:visible;visibility:visible;isolation:auto;mix-blend-mode:normal;color-interpolation:sRGB;color-interpolation-filters:linearRGB;solid-color:#000000;solid-opacity:1;fill:#d73252;fill-opacity:1;fill-rule:evenodd;stroke:none;stroke-width:0.997701;stroke-linecap:round;stroke-linejoin:round;stroke-miterlimit:4;stroke-dasharray:none;stroke-dashoffset:0;stroke-opacity:1;marker:none;marker-start:none;marker-mid:none;marker-end:none;color-rendering:auto;image-rendering:auto;shape-rendering:auto;text-rendering:auto;enable-background:accumulate"
       d="m 0.0029723,15.028047 -0.00169609,0.0017 V 45.579368 L 26.458898,60.854167 52.914824,45.579368 V 15.029766 l -0.0017,-0.0017 -26.45423,15.274802 z m 9.4574033,18.753219 2.9387594,1.696247 v 10.03311 c 0,3.042864 -1.783522,3.397333 -4.3875536,1.893882 C 5.6587041,46.046069 4.2963772,44.041519 3.6034076,42.174844 l 2.3922865,-0.06701 c 0.4616693,1.085562 0.8807701,2.02073 1.8904431,2.60366 0.9654415,0.557408 1.5742384,0.530464 1.5742384,-0.938351 z m 7.1957154,4.633311 c 0.6796,-0.01862 1.53014,0.237819 2.514305,0.806019 1.86836,1.078711 3.211664,2.504186 4.1796,4.76564 l -2.287461,0.147793 c -0.503839,-1.194304 -1.048317,-1.863831 -1.892139,-2.351028 -0.86075,-0.496951 -1.405827,-0.266486 -1.405827,0.446833 0,0.881599 0.545377,1.554824 1.806237,2.828794 l 0.735572,0.737274 c 2.496812,2.512237 3.90633,4.418487 3.90633,6.872627 0,2.645743 -2.079308,2.895274 -4.870475,1.283785 -2.729177,-1.575675 -4.49238,-3.89486 -5.355125,-6.097544 l 2.388861,-0.0086 c 0.629915,1.392198 1.449826,2.622679 2.899252,3.459513 1.21766,0.703007 1.995268,0.543564 1.995268,-0.297315 0,-1.007667 -0.799391,-1.826237 -2.139635,-3.186259 l -0.733842,-0.738994 c -2.120547,-2.127716 -3.529965,-4.07445 -3.529965,-6.467042 0,-1.377472 0.656354,-2.170225 1.789044,-2.201509 z" />
  </g>
</svg>
