<?xml version="1.0" encoding="UTF-8" standalone="no"?>
<svg
   width="142"
   height="24"
   fill="none"
   version="1.1"
   viewBox="0 0 142 24"
   id="svg4"
   sodipodi:docname="cksource.svg"
   inkscape:version="1.2.2 (b0a8486541, 2022-12-01)"
   xmlns:inkscape="http://www.inkscape.org/namespaces/inkscape"
   xmlns:sodipodi="http://sodipodi.sourceforge.net/DTD/sodipodi-0.dtd"
   xmlns="http://www.w3.org/2000/svg"
   xmlns:svg="http://www.w3.org/2000/svg">
  <defs
     id="defs8" />
  <sodipodi:namedview
     id="namedview6"
     pagecolor="#ffffff"
     bordercolor="#000000"
     borderopacity="0.25"
     inkscape:showpageshadow="2"
     inkscape:pageopacity="0.0"
     inkscape:pagecheckerboard="0"
     inkscape:deskcolor="#d1d1d1"
     showgrid="false"
     inkscape:zoom="8.2887324"
     inkscape:cx="70.939677"
     inkscape:cy="12.004248"
     inkscape:window-width="1200"
     inkscape:window-height="1897"
     inkscape:window-x="2256"
     inkscape:window-y="0"
     inkscape:window-maximized="1"
     inkscape:current-layer="svg4" />
  <path
     d="m47.896 0.77539c-4.2193 0-5.5419 0.68976-6.2734 1.1855-1.5711 1.0997-1.8867 3.0309-1.8867 4.9902 0 3.5624 1.5899 5.2803 4.6406 6.4004l4.4785 1.5371c1.0442 0.35839 1.4779 0.48245 1.9199 1.248 0.28084 0.48643 0.31508 1.9625-0.0625 2.5918-0.2942 0.49033-0.90706 0.79883-3.0098 0.79883-5.6282 0-0.78702-0.03344-7.3906-0.16016l-0.32031 3.457c3.5764 0.79476 6.6828 0.86328 7.7109 0.86328 4.8575 0 6.9572-0.98148 7.7773-3.2637 0.48475-1.3534 0.91765-4.925-0.57617-7.168-0.683-1.024-1.9097-1.8346-3.6797-2.4316l-4.2559-1.3769c-1.9362-0.6303-2.3359-1.2468-2.3359-2.5586 0-0.90118 0.09819-1.935 1.6953-2.0176 1.1395-0.11502 4.8314-0.049803 8.543 0.033203l0.32031-3.2324c-2.6213-0.78252-5.7602-0.89648-7.2949-0.89648zm-37.75 0.033203c-5.5527-7e-8 -7.5398 2.1745-8.4805 4.7031-1.2095 3.3713-1.2116 10.062 0 13.439 1.0751 2.8901 3.2782 4.7051 8.4805 4.7051 2.7381 0 4.9534-0.22457 7.1035-0.89648l-0.41602-3.584c-2.2452 0.24388-4.2508 0.28906-6.6875 0.28906-2.5435 0-3.4142-1.112-3.8398-2.8496-0.52063-2.17-0.51932-6.6145 0-8.7344 0.42229-1.7601 1.2794-2.8809 3.8398-2.8809 2.0813 0.00413 4.162 0.044873 6.2402 0.16016l0.38281-3.584c-0.88216-0.25624-1.7628-0.43364-2.6773-0.55279-1.226-0.15973-2.5128-0.21479-3.9457-0.21479zm119.07 0.20117v3.7754h11.752l0.22461-3.4609c-1.9586-0.20764-4.0956-0.29566-6.7617-0.28906-0.76347-0.011273-3.0509-0.020379-5.2148-0.025391zm-108.87 0.18164v22.08h4.8652v-7.6152c0.01535-0.73814-0.13582-1.4577-0.28125-2.1758h2.0547l5.7793 9.791h5.4707l-5.9531-9.5352c-0.48895-0.88564-1.3176-1.5872-1.791-1.8555v-0.09766c0.57324-0.4024 1.1551-0.95316 1.6016-1.6953l5.7598-8.8965h-5.2812l-5.5977 8.8965h-2.041c0.22121-0.81859 0.2793-1.8324 0.2793-2.6563v-6.2402zm46.232 5.8574c-5.7997 0-8.1602 2.1487-8.1602 8.3516 0 5.6567 1.8815 8.2559 8.1602 8.2559 5.3216 0 8.1289-1.6453 8.1289-8.2559-3e-6 -5.4848-1.659-8.3516-8.1289-8.3516zm37.619 0.76758c-1.0544 0.47772-2.0978 1.2038-3.1348 2.0898l-0.44922-2.4414h-3.7129v15.807h4.7363v-10.709c2.0851-0.66881 3.0724-1.1923 6.2402-1.1309l0.44726-4.3828c-1.4379-0.091376-2.8018 0.2246-4.127 0.76758zm13.471-0.76758c-6.2418 0-8 2.6542-8 8.2871 0 6.094 2.1268 8.3203 7.9687 8.3203 1.4388-0.0021 4.0614-0.1521 6.1426-1.0879l-0.44726-3.0078c-1.3758 0.19515-2.8969 0.25762-4.8633 0.28711-2.9809 0-3.8398-1.115-3.8398-4.5117 0-3.4999 1.0135-4.4473 3.8398-4.4473 1.5148 0.0041 3.0288 0.05739 4.543 0.0957l0.51172-2.9766c-1.8584-0.7682-3.8697-0.89865-5.8555-0.95898zm-39.83 0.41602v11.84c0 2.944 1.5037 4.416 4.5117 4.416 2.8378 0 4.8764-1.4038 6.5332-2.7891l0.41016 2.3398h3.7441v-15.807h-4.7363v10.922c-1.5526 0.82491-2.4695 1.2995-3.9043 1.3008-1.4556 0-1.8242-0.67479-1.8242-1.8242v-10.398zm51.377 2.6133v3.3457h9.2695v-3.3457zm-62.636 0.42578c2.4569 0 3.1992 1.0629 3.1992 4.8965 0 3.8069-0.72198 4.832-3.1992 4.832-2.3628 0-3.1992-0.85845-3.1992-4.832 0-3.633 0.61747-4.8965 3.1992-4.8965zm62.494 8.9004v3.8672c1.9974-6.37e-4 3.9948-0.0098 5.9922-0.02734 1.8518 3.81e-4 3.6366-0.01992 6.8789-0.28906l-0.22266-3.5508z"
     style="fill:#ffffff"
     id="path2" />
</svg>
