<svg xmlns="http://www.w3.org/2000/svg" viewBox="0 0 253 37.7"><path d="M251.3.2l-1 2.7-.6 1.9h-.1l-.6-1.9-1.1-2.7h-1.7v7.3h1.3V4.3l-.2-2.5h.1l1.7 4.4h1l1.7-4.4h.1l-.2 2.5v3.2h1.3V.2h-1.7zm-12 1.3h2.2v6h1.4v-6h2.2V.2h-5.9l.1 1.3zM109 9.7c-1.3-.7-2.7-1.1-4.2-1.1-2.7 0-5.4 1.3-7.4 3.7L97.2 9h-3.5v20.1h3.7V16.3c1.7-2.7 3.6-4.4 6.4-4.4 1.4 0 2.8.4 4.1 1l1.1-3.2zM11 26.6c-4.1 0-7.3-2.9-7.3-7.4s3.2-7.5 7.3-7.5c2 0 4 .8 5.5 2.2l1.8-2.3c-2.1-1.9-4.7-2.9-7.5-2.9C5.3 8.6 0 12.6 0 19.2s5.3 10.4 10.8 10.5c3 0 5.8-1.1 8-3.1l-1.7-2.4c-1.5 1.3-3.6 2.4-6.1 2.4M56.4 8.7c-2.5 0-4.7 1-6.7 2.9l.1-5V.8h-3.7v28.4h3.1l.2-2.2c1.6 1.7 3.8 2.7 6.2 2.7 4.7.1 9-3.9 9-10.8.1-6.2-3.3-10.2-8.2-10.2m-1.3 17.8c-1.5 0-3.4-.5-5.2-2.2v-9.7c2.1-2.3 4.1-2.9 5.7-2.9 3.2 0 5.4 2.6 5.4 7.2-.1 4.8-2.6 7.7-5.9 7.6m-22.7-1.6L25.5 9.1h-4L30.7 29l-.6 1.7c-1 2.3-2.6 4-5.3 4-.6 0-1.2-.1-1.8-.3l-.8 2.9c.9.3 1.8.4 2.8.4 4.6 0 7-3 8.6-7l8.7-21.6h-3.8l-6.1 15.8zM79 8.7c-5.3 0-10 3.9-10 10.5s4.6 10.5 10.8 10.5c2.8 0 5.6-.8 7.9-2.4l-1.4-2.4c-1.8 1.2-3.6 1.9-6 1.9-4.1 0-7.1-2.1-7.6-6.5h15.5c.2-.7.3-1.4.2-2.2.1-5.7-4.1-9.4-9.4-9.4m-6.2 8.7c.6-3.6 3-5.9 6.2-5.9 3.1 0 5.6 2 6 5.9H72.8zm136.2.8l7.2-6.8c1.7-1.6-.7-4-2.4-2.3l-10.1 9.6V1.9c0-1-.8-1.9-1.9-1.9-1 0-1.9.8-1.9 1.9v26c0 1 .8 1.9 1.9 1.9 1 0 1.9-.8 1.9-1.9v-4.6l2.9-2.7 7.9 8.4c1.7 1.8 4.3-.5 2.5-2.3l-8-8.5zm-15.4 7.6c-.9 0-1.6.7-3.2.7-2.3 0-3.5-1.5-3.5-4V2.2c0-.8-.6-1.4-1.4-1.4h-6.4c-.9 0-1.6.7-1.6 1.6 0 .9.7 1.6 1.6 1.6h4.1v18.3c0 4.6 2.4 7.4 6.9 7.4 2.5 0 5.2-.8 5.2-2.4-.2-.8-.9-1.5-1.7-1.5M154.4.8h-14.5c-.9 0-1.6.7-1.6 1.6v25.4c0 1 .9 1.9 1.9 1.9 1 0 1.9-.8 1.9-1.9V16.2h9.1c.9 0 1.6-.7 1.6-1.6 0-.9-.7-1.6-1.6-1.6h-9.1V4h12.3c.9 0 1.6-.7 1.6-1.6 0-.9-.7-1.6-1.6-1.6M129.9 32h-23.7v3.1h23.7c.9 0 1.6-.7 1.6-1.6 0-.8-.7-1.5-1.6-1.5.1 0 .1 0 0 0m36.8-23.3c-6.4 0-10.4 4.9-10.3 10.5-.1 5.7 3.9 10.5 10.3 10.5 6.3 0 10.1-4.9 10.2-10.5.2-5.6-3.9-10.5-10.2-10.5m0 17.7c-4 0-6.5-3.2-6.5-7.3 0-4 2.5-7.2 6.5-7.2 3.9 0 6.4 3.3 6.4 7.2 0 4.1-2.5 7.3-6.4 7.3m63.9-8.9c-3.6-.8-5.3-1.7-5.3-3.3 0-3.2 6-3 9.4-1 1.9 1.1 3.4-1.3 1.4-2.6-1.7-1.1-4.3-1.9-7.1-1.9-5.2 0-7.3 2.9-7.3 5.6 0 1.9 1.1 4.6 5.1 5.8 3.8 1 7.6 1.3 7.6 3.8 0 1.7-1.8 2.9-4.7 2.9-2.3 0-4.6-.9-6.4-2.3-1.7-1.3-3.9.4-2.1 2.3 1.2 1.4 5 3.1 8.6 3.1 4.4 0 8.1-2.3 8.2-6.2.1-4.3-3.7-5.4-7.4-6.2" fill="#fff"/></svg>