<?xml version="1.0" encoding="UTF-8" standalone="no"?>
<svg
   xmlns:dc="http://purl.org/dc/elements/1.1/"
   xmlns:cc="http://creativecommons.org/ns#"
   xmlns:rdf="http://www.w3.org/1999/02/22-rdf-syntax-ns#"
   xmlns:svg="http://www.w3.org/2000/svg"
   xmlns="http://www.w3.org/2000/svg"
   xmlns:sodipodi="http://sodipodi.sourceforge.net/DTD/sodipodi-0.dtd"
   xmlns:inkscape="http://www.inkscape.org/namespaces/inkscape"
   version="1.1"
   width="100%"
   height="100%"
   class="vizzlo-svg editable"
   text-rendering="geometricPrecision"
   shape-rendering="geometricPrecision"
   viewBox="0 0 720 540"
   id="svg2"
   inkscape:version="0.91 r13725"
   sodipodi:docname="ccl.svg"
   inkscape:export-xdpi="100.01157"
   inkscape:export-ydpi="100.01157">
  <metadata
     id="metadata232">
    <rdf:RDF>
      <cc:Work
         rdf:about="">
        <dc:format>image/svg+xml</dc:format>
        <dc:type
           rdf:resource="http://purl.org/dc/dcmitype/StillImage" />
      </cc:Work>
    </rdf:RDF>
  </metadata>
  <sodipodi:namedview
     pagecolor="#ffffff"
     bordercolor="#666666"
     borderopacity="1"
     objecttolerance="10"
     gridtolerance="10"
     guidetolerance="10"
     inkscape:pageopacity="0"
     inkscape:pageshadow="2"
     inkscape:window-width="1920"
     inkscape:window-height="1029"
     id="namedview230"
     showgrid="false"
     inkscape:zoom="0.87407407"
     inkscape:cx="751.25901"
     inkscape:cy="83.749843"
     inkscape:window-x="0"
     inkscape:window-y="25"
     inkscape:window-maximized="1"
     inkscape:current-layer="svg2" />
  <style
     type="text/css"
     id="style4">@font-face {
  font-family: 'Lobster-Regular';
  font-style: normal;
  font-weight: 400;
  src: url('/fonts/lobster/Lobster-Regular.ttf') format('truetype');
}
@font-face {
  font-family: 'OpenSans-Regular';
  font-style: normal;
  font-weight: 400;
  src: url('/fonts/opensans/OpenSans-Regular.ttf') format('truetype');
}</style>
  <style
     type="text/css"
     id="style6" />
  <defs
     id="defs8">
    <clipPath
       id="canvasClipde3518e5-efac-cb75-5505-5b85a29d996a">
      <path
         d="M0 0V540H720V0H0Z"
         id="path11" />
    </clipPath>
  </defs>
  <g
     id="g4045"
     inkscape:export-xdpi="250.08319"
     inkscape:export-ydpi="250.08319">
    <path
       d="m 201.58255,233.96893 -62.67475,-0.0763 A 223,223 0 0 1 469.81045,68.91068 L 407.86079,176.21085 A 99.111111,99.111111 0 0 0 261.7368,250.0634 Z"
       vector-effect="non-scaling-stroke"
       id="path23"
       inkscape:connector-curvature="0"
       style="fill-opacity:0;stroke-width:0" />
    <path
       d="m 201.58255,233.96893 -62.67475,-0.0763 A 223,223 0 0 1 469.81045,68.91068 L 407.86079,176.21085 A 99.111111,99.111111 0 0 0 261.7368,250.0634 Z"
       id="path27"
       inkscape:connector-curvature="0"
       style="fill:#c64242" />
    <rect
       transform="matrix(0.44228869,0.89687274,-0.89687274,0.44228869,0,0)"
       id="rect35"
       vector-effect="non-scaling-stroke"
       y="-214.30226"
       x="194.7959"
       height="15.5"
       width="78.5"
       style="fill-opacity:0;stroke-width:0" />
    <text
       transform="matrix(0.9246211,-0.38088819,0.38088819,0.9246211,0,0)"
       id="text45"
       y="233.47044"
       x="241.67323"
       dy="-9.7185783"
       font-size="12"
       style="font-size:15.04812145px;font-family:OpenSans-Regular;direction:ltr;text-anchor:middle;white-space:pre;fill:#ffffff;fill-opacity:1;text-rendering:geometricPrecision"
       xml:space="preserve"
       direction="ltr">FRUSTRATION</text>
    <rect
       transform="matrix(0.44228869,0.89687274,-0.89687274,0.44228869,0,0)"
       id="rect49"
       vector-effect="non-scaling-stroke"
       y="-214.30226"
       x="194.7959"
       height="15.5"
       width="78.5"
       style="fill-opacity:0;stroke:#2266bb;stroke-width:0;stroke-dasharray:2, 4" />
    <path
       d="m 201.58255,233.96893 -62.67475,-0.0763 A 223,223 0 0 1 469.81045,68.91068 L 407.86079,176.21085 A 99.111111,99.111111 0 0 0 261.7368,250.0634 Z"
       vector-effect="non-scaling-stroke"
       id="path53"
       inkscape:connector-curvature="0"
       style="fill-opacity:0;stroke:#2266bb;stroke-width:0;stroke-dasharray:2, 4" />
    <path
       d="m 473.18105,70.8567 a 223,223 0 0 1 0,384.2866 L 411.23122,347.84324 a 99.111111,99.111111 0 0 0 0,-169.68648 z"
       vector-effect="non-scaling-stroke"
       id="path59"
       inkscape:connector-curvature="0"
       style="fill-opacity:0;stroke-width:0" />
    <path
       d="m 473.18105,70.8567 a 223,223 0 0 1 0,384.2866 L 411.23122,347.84324 a 99.111111,99.111111 0 0 0 0,-169.68648 z"
       id="path63"
       inkscape:connector-curvature="0"
       style="fill:#558ab5" />
    <rect
       id="rect71"
       vector-effect="non-scaling-stroke"
       y="255.25"
       x="481.55557"
       height="15.5"
       width="79"
       style="fill-opacity:0;stroke-width:0" />
    <g
       transform="matrix(0.33740782,1.347318,-1.347318,0.33740782,493.9277,250.56575)"
       class=""
       id="g79">
      <text
         direction="ltr"
         xml:space="preserve"
         style="font-size:12px;font-family:OpenSans-Regular;direction:ltr;text-anchor:middle;white-space:pre;fill:#ffffff;fill-opacity:1;text-rendering:geometricPrecision"
         font-size="12"
         dy="-7.75"
         x="0"
         y="-7.75"
         id="text81">AUTOMATION</text>
    </g>
    <rect
       id="rect85"
       vector-effect="non-scaling-stroke"
       y="255.25"
       x="481.55557"
       height="15.5"
       width="79"
       style="fill-opacity:0;stroke:#2266bb;stroke-width:0;stroke-dasharray:2, 4" />
    <path
       d="m 473.18105,70.8567 a 223,223 0 0 1 0,384.2866 L 411.23122,347.84324 a 99.111111,99.111111 0 0 0 0,-169.68648 z"
       vector-effect="non-scaling-stroke"
       id="path89"
       inkscape:connector-curvature="0"
       style="fill-opacity:0;stroke:#2266bb;stroke-width:0;stroke-dasharray:2, 4" />
    <path
       d="M 469.81045,457.08932 A 223,223 0 0 1 144.59854,320.71665 l 56.98401,-28.68558 63.57403,-0.26063 a 99.111111,99.111111 0 0 0 142.70421,58.01871 z"
       vector-effect="non-scaling-stroke"
       id="path95"
       inkscape:connector-curvature="0"
       style="fill-opacity:0;stroke-width:0" />
    <path
       d="M 469.81045,457.08932 A 223,223 0 0 1 144.59854,320.71665 l 56.98401,-28.68558 63.57403,-0.26063 a 99.111111,99.111111 0 0 0 142.70421,58.01871 z"
       id="path99"
       inkscape:connector-curvature="0"
       style="fill:#f79420" />
    <rect
       transform="matrix(0.38268343,-0.92387953,0.92387953,0.38268343,0,0)"
       id="rect107"
       vector-effect="non-scaling-stroke"
       y="425.49237"
       x="-294.26984"
       height="15.5"
       width="56"
       style="fill-opacity:0;stroke-width:0" />
    <g
       transform="matrix(1.3817488,0.89564917,-0.89564917,1.3817488,262.00364,431.0212)"
       class=""
       id="g115">
      <text
         direction="ltr"
         xml:space="preserve"
         style="font-size:12px;font-family:OpenSans-Regular;direction:ltr;text-anchor:middle;white-space:pre;fill:#ffffff;fill-opacity:1;text-rendering:geometricPrecision"
         font-size="12"
         dy="-7.75"
         x="0"
         y="-7.75"
         id="text117">HAPPINES</text>
    </g>
    <rect
       transform="matrix(0.38268343,-0.92387953,0.92387953,0.38268343,0,0)"
       id="rect121"
       vector-effect="non-scaling-stroke"
       y="425.49237"
       x="-294.26984"
       height="15.5"
       width="56"
       style="fill-opacity:0;stroke:#2266bb;stroke-width:0;stroke-dasharray:2, 4" />
    <path
       d="M 469.81045,457.08932 A 223,223 0 0 1 144.59854,320.71665 l 56.98401,-28.68558 63.57403,-0.26063 a 99.111111,99.111111 0 0 0 142.70421,58.01871 z"
       vector-effect="non-scaling-stroke"
       id="path125"
       inkscape:connector-curvature="0"
       style="fill-opacity:0;stroke:#2266bb;stroke-width:0;stroke-dasharray:2, 4" />
  </g>
  <text
     x="-1000"
     y="-1000"
     font-size="100"
     id="text214"
     style="font-size:100px;font-family:Lobster-Regular">hallo!</text>
  <text
     x="-1000"
     y="-1000"
     font-size="100"
     id="text216"
     style="font-size:100px;font-family:OpenSans-Regular">hallo!</text>
</svg>
