<?xml version="1.0" encoding="UTF-8" standalone="no"?>
<!DOCTYPE svg PUBLIC "-//W3C//DTD SVG 1.1//EN" "http://www.w3.org/Graphics/SVG/1.1/DTD/svg11.dtd">
<svg width="100%" height="100%" viewBox="0 0 3000 1000" version="1.1" xmlns="http://www.w3.org/2000/svg" xmlns:xlink="http://www.w3.org/1999/xlink" xml:space="preserve" xmlns:serif="http://www.serif.com/" style="fill-rule:evenodd;clip-rule:evenodd;stroke-linejoin:round;stroke-miterlimit:2;">
    <g transform="matrix(1,0,0,1,-45.7193,0)">
        <g id="Text-White" serif:id="Text White" transform="matrix(1.57494,0,0,1.57494,-585.475,-72.2515)">
            <text x="1046.97px" y="502.435px" style="font-family:'EuclidCircularB-Semibold', 'Euclid Circular B', sans-serif;font-weight:600;font-size:397.389px;fill:white;">S<tspan x="1257.98px 1477.34px 1683.19px 1875.92px 2086.14px " y="502.435px 502.435px 502.435px 502.435px 502.435px ">ocket</tspan></text>
        </g>
        <g>
            <g transform="matrix(0.722418,0,0,1.07729,132.146,-13.1666)">
                <rect x="246.062" y="170.343" width="492" height="606.75" style="fill:white;"/>
            </g>
            <g transform="matrix(13.9389,0,0,13.9394,152.3,40)">
                <path d="M-0,30.721C-0,47.001 10.39,60.852 24.926,66C32.175,63.44 38.42,58.685 42.837,52.552C47.282,46.401 49.889,38.87 49.889,30.721L49.889,9.003L24.935,0L0.009,9.003L0.009,30.721L0,30.721ZM20.603,13.973L32.175,13.973L28.63,26.042L34.932,26.042L17.705,52.018L21.794,33.159L14.948,33.159L20.603,13.973Z" style="fill:url(#_Linear1);fill-rule:nonzero;"/>
            </g>
        </g>
    </g>
    <defs>
        <linearGradient id="_Linear1" x1="0" y1="0" x2="1" y2="0" gradientUnits="userSpaceOnUse" gradientTransform="matrix(49.889,0,0,66,0,33)"><stop offset="0" style="stop-color:rgb(255,0,170);stop-opacity:1"/><stop offset="1" style="stop-color:rgb(140,80,255);stop-opacity:1"/></linearGradient>
    </defs>
</svg>
