<?xml version="1.0" encoding="UTF-8" standalone="no"?>
<!-- Created with qrencode 4.0.2 (https://fukuchi.org/works/qrencode/index.html) -->

<svg
   xmlns:dc="http://purl.org/dc/elements/1.1/"
   xmlns:cc="http://creativecommons.org/ns#"
   xmlns:rdf="http://www.w3.org/1999/02/22-rdf-syntax-ns#"
   xmlns:svg="http://www.w3.org/2000/svg"
   xmlns="http://www.w3.org/2000/svg"
   xmlns:sodipodi="http://sodipodi.sourceforge.net/DTD/sodipodi-0.dtd"
   xmlns:inkscape="http://www.inkscape.org/namespaces/inkscape"
   width="3.49cm"
   height="3.49cm"
   viewBox="0 0 33 33"
   preserveAspectRatio="none"
   version="1.1"
   id="svg682"
   sodipodi:docname="naugtur.svg"
   inkscape:version="0.92.5 (2060ec1f9f, 2020-04-08)">
  <metadata
     id="metadata688">
    <rdf:RDF>
      <cc:Work
         rdf:about="">
        <dc:format>image/svg+xml</dc:format>
        <dc:type
           rdf:resource="http://purl.org/dc/dcmitype/StillImage" />
      </cc:Work>
    </rdf:RDF>
  </metadata>
  <defs
     id="defs686" />
  <sodipodi:namedview
     pagecolor="#ffffff"
     bordercolor="#666666"
     borderopacity="1"
     objecttolerance="10"
     gridtolerance="10"
     guidetolerance="10"
     inkscape:pageopacity="0"
     inkscape:pageshadow="2"
     inkscape:window-width="1920"
     inkscape:window-height="1040"
     id="namedview684"
     showgrid="false"
     inkscape:zoom="5.0605073"
     inkscape:cx="42.65275"
     inkscape:cy="52.482704"
     inkscape:window-x="0"
     inkscape:window-y="25"
     inkscape:window-maximized="1"
     inkscape:current-layer="svg682" />
  <rect
     style="fill:#000000;fill-opacity:1"
     id="rect2"
     height="33"
     width="33"
     y="0"
     x="0" />
  <rect
     x="4"
     y="4"
     width="1"
     height="1"
     id="rect4"
     style="fill:#ffffff" />
  <rect
     x="5"
     y="4"
     width="1"
     height="1"
     id="rect6"
     style="fill:#ffffff" />
  <rect
     x="6"
     y="4"
     width="1"
     height="1"
     id="rect8"
     style="fill:#ffffff" />
  <rect
     x="7"
     y="4"
     width="1"
     height="1"
     id="rect10"
     style="fill:#ffffff" />
  <rect
     x="8"
     y="4"
     width="1"
     height="1"
     id="rect12"
     style="fill:#ffffff" />
  <rect
     x="9"
     y="4"
     width="1"
     height="1"
     id="rect14"
     style="fill:#ffffff" />
  <rect
     x="10"
     y="4"
     width="1"
     height="1"
     id="rect16"
     style="fill:#ffffff" />
  <rect
     x="12"
     y="4"
     width="1"
     height="1"
     id="rect18"
     style="fill:#ffffff" />
  <rect
     x="15"
     y="4"
     width="1"
     height="1"
     id="rect20"
     style="fill:#ffffff" />
  <rect
     x="16"
     y="4"
     width="1"
     height="1"
     id="rect22"
     style="fill:#ffffff" />
  <rect
     x="18"
     y="4"
     width="1"
     height="1"
     id="rect24"
     style="fill:#ffffff" />
  <rect
     x="22"
     y="4"
     width="1"
     height="1"
     id="rect26"
     style="fill:#ffffff" />
  <rect
     x="23"
     y="4"
     width="1"
     height="1"
     id="rect28"
     style="fill:#ffffff" />
  <rect
     x="24"
     y="4"
     width="1"
     height="1"
     id="rect30"
     style="fill:#ffffff" />
  <rect
     x="25"
     y="4"
     width="1"
     height="1"
     id="rect32"
     style="fill:#ffffff" />
  <rect
     x="26"
     y="4"
     width="1"
     height="1"
     id="rect34"
     style="fill:#ffffff" />
  <rect
     x="27"
     y="4"
     width="1"
     height="1"
     id="rect36"
     style="fill:#ffffff" />
  <rect
     x="28"
     y="4"
     width="1"
     height="1"
     id="rect38"
     style="fill:#ffffff" />
  <rect
     x="4"
     y="5"
     width="1"
     height="1"
     id="rect40"
     style="fill:#ffffff" />
  <rect
     x="10"
     y="5"
     width="1"
     height="1"
     id="rect42"
     style="fill:#ffffff" />
  <rect
     x="12"
     y="5"
     width="1"
     height="1"
     id="rect44"
     style="fill:#ffffff" />
  <rect
     x="13"
     y="5"
     width="1"
     height="1"
     id="rect46"
     style="fill:#ffffff" />
  <rect
     x="14"
     y="5"
     width="1"
     height="1"
     id="rect48"
     style="fill:#ffffff" />
  <rect
     x="16"
     y="5"
     width="1"
     height="1"
     id="rect50"
     style="fill:#ffffff" />
  <rect
     x="18"
     y="5"
     width="1"
     height="1"
     id="rect52"
     style="fill:#ffffff" />
  <rect
     x="22"
     y="5"
     width="1"
     height="1"
     id="rect54"
     style="fill:#ffffff" />
  <rect
     x="28"
     y="5"
     width="1"
     height="1"
     id="rect56"
     style="fill:#ffffff" />
  <rect
     x="4"
     y="6"
     width="1"
     height="1"
     id="rect58"
     style="fill:#ffffff" />
  <rect
     x="6"
     y="6"
     width="1"
     height="1"
     id="rect60"
     style="fill:#ffffff" />
  <rect
     x="7"
     y="6"
     width="1"
     height="1"
     id="rect62"
     style="fill:#ffffff" />
  <rect
     x="8"
     y="6"
     width="1"
     height="1"
     id="rect64"
     style="fill:#ffffff" />
  <rect
     x="10"
     y="6"
     width="1"
     height="1"
     id="rect66"
     style="fill:#ffffff" />
  <rect
     x="14"
     y="6"
     width="1"
     height="1"
     id="rect68"
     style="fill:#ffffff" />
  <rect
     x="15"
     y="6"
     width="1"
     height="1"
     id="rect70"
     style="fill:#ffffff" />
  <rect
     x="16"
     y="6"
     width="1"
     height="1"
     id="rect72"
     style="fill:#ffffff" />
  <rect
     x="17"
     y="6"
     width="1"
     height="1"
     id="rect74"
     style="fill:#ffffff" />
  <rect
     x="18"
     y="6"
     width="1"
     height="1"
     id="rect76"
     style="fill:#ffffff" />
  <rect
     x="19"
     y="6"
     width="1"
     height="1"
     id="rect78"
     style="fill:#ffffff" />
  <rect
     x="20"
     y="6"
     width="1"
     height="1"
     id="rect80"
     style="fill:#ffffff" />
  <rect
     x="22"
     y="6"
     width="1"
     height="1"
     id="rect82"
     style="fill:#ffffff" />
  <rect
     x="24"
     y="6"
     width="1"
     height="1"
     id="rect84"
     style="fill:#ffffff" />
  <rect
     x="25"
     y="6"
     width="1"
     height="1"
     id="rect86"
     style="fill:#ffffff" />
  <rect
     x="26"
     y="6"
     width="1"
     height="1"
     id="rect88"
     style="fill:#ffffff" />
  <rect
     x="28"
     y="6"
     width="1"
     height="1"
     id="rect90"
     style="fill:#ffffff" />
  <rect
     x="4"
     y="7"
     width="1"
     height="1"
     id="rect92"
     style="fill:#ffffff" />
  <rect
     x="6"
     y="7"
     width="1"
     height="1"
     id="rect94"
     style="fill:#ffffff" />
  <rect
     x="7"
     y="7"
     width="1"
     height="1"
     id="rect96"
     style="fill:#ffffff" />
  <rect
     x="8"
     y="7"
     width="1"
     height="1"
     id="rect98"
     style="fill:#ffffff" />
  <rect
     x="10"
     y="7"
     width="1"
     height="1"
     id="rect100"
     style="fill:#ffffff" />
  <rect
     x="14"
     y="7"
     width="1"
     height="1"
     id="rect102"
     style="fill:#ffffff" />
  <rect
     x="17"
     y="7"
     width="1"
     height="1"
     id="rect104"
     style="fill:#ffffff" />
  <rect
     x="20"
     y="7"
     width="1"
     height="1"
     id="rect106"
     style="fill:#ffffff" />
  <rect
     x="22"
     y="7"
     width="1"
     height="1"
     id="rect108"
     style="fill:#ffffff" />
  <rect
     x="24"
     y="7"
     width="1"
     height="1"
     id="rect110"
     style="fill:#ffffff" />
  <rect
     x="25"
     y="7"
     width="1"
     height="1"
     id="rect112"
     style="fill:#ffffff" />
  <rect
     x="26"
     y="7"
     width="1"
     height="1"
     id="rect114"
     style="fill:#ffffff" />
  <rect
     x="28"
     y="7"
     width="1"
     height="1"
     id="rect116"
     style="fill:#ffffff" />
  <rect
     x="4"
     y="8"
     width="1"
     height="1"
     id="rect118"
     style="fill:#ffffff" />
  <rect
     x="6"
     y="8"
     width="1"
     height="1"
     id="rect120"
     style="fill:#ffffff" />
  <rect
     x="7"
     y="8"
     width="1"
     height="1"
     id="rect122"
     style="fill:#ffffff" />
  <rect
     x="8"
     y="8"
     width="1"
     height="1"
     id="rect124"
     style="fill:#ffffff" />
  <rect
     x="10"
     y="8"
     width="1"
     height="1"
     id="rect126"
     style="fill:#ffffff" />
  <rect
     x="12"
     y="8"
     width="1"
     height="1"
     id="rect128"
     style="fill:#ffffff" />
  <rect
     x="13"
     y="8"
     width="1"
     height="1"
     id="rect130"
     style="fill:#ffffff" />
  <rect
     x="14"
     y="8"
     width="1"
     height="1"
     id="rect132"
     style="fill:#ffffff" />
  <rect
     x="15"
     y="8"
     width="1"
     height="1"
     id="rect134"
     style="fill:#ffffff" />
  <rect
     x="18"
     y="8"
     width="1"
     height="1"
     id="rect136"
     style="fill:#ffffff" />
  <rect
     x="22"
     y="8"
     width="1"
     height="1"
     id="rect138"
     style="fill:#ffffff" />
  <rect
     x="24"
     y="8"
     width="1"
     height="1"
     id="rect140"
     style="fill:#ffffff" />
  <rect
     x="25"
     y="8"
     width="1"
     height="1"
     id="rect142"
     style="fill:#ffffff" />
  <rect
     x="26"
     y="8"
     width="1"
     height="1"
     id="rect144"
     style="fill:#ffffff" />
  <rect
     x="28"
     y="8"
     width="1"
     height="1"
     id="rect146"
     style="fill:#ffffff" />
  <rect
     x="4"
     y="9"
     width="1"
     height="1"
     id="rect148"
     style="fill:#ffffff" />
  <rect
     x="10"
     y="9"
     width="1"
     height="1"
     id="rect150"
     style="fill:#ffffff" />
  <rect
     x="12"
     y="9"
     width="1"
     height="1"
     id="rect152"
     style="fill:#ffffff" />
  <rect
     x="15"
     y="9"
     width="1"
     height="1"
     id="rect154"
     style="fill:#ffffff" />
  <rect
     x="17"
     y="9"
     width="1"
     height="1"
     id="rect156"
     style="fill:#ffffff" />
  <rect
     x="18"
     y="9"
     width="1"
     height="1"
     id="rect158"
     style="fill:#ffffff" />
  <rect
     x="22"
     y="9"
     width="1"
     height="1"
     id="rect160"
     style="fill:#ffffff" />
  <rect
     x="28"
     y="9"
     width="1"
     height="1"
     id="rect162"
     style="fill:#ffffff" />
  <rect
     x="4"
     y="10"
     width="1"
     height="1"
     id="rect164"
     style="fill:#ffffff" />
  <rect
     x="5"
     y="10"
     width="1"
     height="1"
     id="rect166"
     style="fill:#ffffff" />
  <rect
     x="6"
     y="10"
     width="1"
     height="1"
     id="rect168"
     style="fill:#ffffff" />
  <rect
     x="7"
     y="10"
     width="1"
     height="1"
     id="rect170"
     style="fill:#ffffff" />
  <rect
     x="8"
     y="10"
     width="1"
     height="1"
     id="rect172"
     style="fill:#ffffff" />
  <rect
     x="9"
     y="10"
     width="1"
     height="1"
     id="rect174"
     style="fill:#ffffff" />
  <rect
     x="10"
     y="10"
     width="1"
     height="1"
     id="rect176"
     style="fill:#ffffff" />
  <rect
     x="12"
     y="10"
     width="1"
     height="1"
     id="rect178"
     style="fill:#ffffff" />
  <rect
     x="14"
     y="10"
     width="1"
     height="1"
     id="rect180"
     style="fill:#ffffff" />
  <rect
     x="16"
     y="10"
     width="1"
     height="1"
     id="rect182"
     style="fill:#ffffff" />
  <rect
     x="18"
     y="10"
     width="1"
     height="1"
     id="rect184"
     style="fill:#ffffff" />
  <rect
     x="20"
     y="10"
     width="1"
     height="1"
     id="rect186"
     style="fill:#ffffff" />
  <rect
     x="22"
     y="10"
     width="1"
     height="1"
     id="rect188"
     style="fill:#ffffff" />
  <rect
     x="23"
     y="10"
     width="1"
     height="1"
     id="rect190"
     style="fill:#ffffff" />
  <rect
     x="24"
     y="10"
     width="1"
     height="1"
     id="rect192"
     style="fill:#ffffff" />
  <rect
     x="25"
     y="10"
     width="1"
     height="1"
     id="rect194"
     style="fill:#ffffff" />
  <rect
     x="26"
     y="10"
     width="1"
     height="1"
     id="rect196"
     style="fill:#ffffff" />
  <rect
     x="27"
     y="10"
     width="1"
     height="1"
     id="rect198"
     style="fill:#ffffff" />
  <rect
     x="28"
     y="10"
     width="1"
     height="1"
     id="rect200"
     style="fill:#ffffff" />
  <rect
     x="12"
     y="11"
     width="1"
     height="1"
     id="rect202"
     style="fill:#ffffff" />
  <rect
     x="14"
     y="11"
     width="1"
     height="1"
     id="rect204"
     style="fill:#ffffff" />
  <rect
     x="15"
     y="11"
     width="1"
     height="1"
     id="rect206"
     style="fill:#ffffff" />
  <rect
     x="16"
     y="11"
     width="1"
     height="1"
     id="rect208"
     style="fill:#ffffff" />
  <rect
     x="18"
     y="11"
     width="1"
     height="1"
     id="rect210"
     style="fill:#ffffff" />
  <rect
     x="19"
     y="11"
     width="1"
     height="1"
     id="rect212"
     style="fill:#ffffff" />
  <rect
     x="20"
     y="11"
     width="1"
     height="1"
     id="rect214"
     style="fill:#ffffff" />
  <rect
     x="4"
     y="12"
     width="1"
     height="1"
     id="rect216"
     style="fill:#ffffff" />
  <rect
     x="5"
     y="12"
     width="1"
     height="1"
     id="rect218"
     style="fill:#ffffff" />
  <rect
     x="6"
     y="12"
     width="1"
     height="1"
     id="rect220"
     style="fill:#ffffff" />
  <rect
     x="9"
     y="12"
     width="1"
     height="1"
     id="rect222"
     style="fill:#ffffff" />
  <rect
     x="10"
     y="12"
     width="1"
     height="1"
     id="rect224"
     style="fill:#ffffff" />
  <rect
     x="12"
     y="12"
     width="1"
     height="1"
     id="rect226"
     style="fill:#ffffff" />
  <rect
     x="13"
     y="12"
     width="1"
     height="1"
     id="rect228"
     style="fill:#ffffff" />
  <rect
     x="14"
     y="12"
     width="1"
     height="1"
     id="rect230"
     style="fill:#ffffff" />
  <rect
     x="17"
     y="12"
     width="1"
     height="1"
     id="rect232"
     style="fill:#ffffff" />
  <rect
     x="18"
     y="12"
     width="1"
     height="1"
     id="rect234"
     style="fill:#ffffff" />
  <rect
     x="20"
     y="12"
     width="1"
     height="1"
     id="rect236"
     style="fill:#ffffff" />
  <rect
     x="21"
     y="12"
     width="1"
     height="1"
     id="rect238"
     style="fill:#ffffff" />
  <rect
     x="22"
     y="12"
     width="1"
     height="1"
     id="rect240"
     style="fill:#ffffff" />
  <rect
     x="23"
     y="12"
     width="1"
     height="1"
     id="rect242"
     style="fill:#ffffff" />
  <rect
     x="24"
     y="12"
     width="1"
     height="1"
     id="rect244"
     style="fill:#ffffff" />
  <rect
     x="27"
     y="12"
     width="1"
     height="1"
     id="rect246"
     style="fill:#ffffff" />
  <rect
     x="28"
     y="12"
     width="1"
     height="1"
     id="rect248"
     style="fill:#ffffff" />
  <rect
     x="4"
     y="13"
     width="1"
     height="1"
     id="rect250"
     style="fill:#ffffff" />
  <rect
     x="5"
     y="13"
     width="1"
     height="1"
     id="rect252"
     style="fill:#ffffff" />
  <rect
     x="6"
     y="13"
     width="1"
     height="1"
     id="rect254"
     style="fill:#ffffff" />
  <rect
     x="8"
     y="13"
     width="1"
     height="1"
     id="rect256"
     style="fill:#ffffff" />
  <rect
     x="11"
     y="13"
     width="1"
     height="1"
     id="rect258"
     style="fill:#ffffff" />
  <rect
     x="13"
     y="13"
     width="1"
     height="1"
     id="rect260"
     style="fill:#ffffff" />
  <rect
     x="14"
     y="13"
     width="1"
     height="1"
     id="rect262"
     style="fill:#ffffff" />
  <rect
     x="17"
     y="13"
     width="1"
     height="1"
     id="rect264"
     style="fill:#ffffff" />
  <rect
     x="19"
     y="13"
     width="1"
     height="1"
     id="rect266"
     style="fill:#ffffff" />
  <rect
     x="22"
     y="13"
     width="1"
     height="1"
     id="rect268"
     style="fill:#ffffff" />
  <rect
     x="23"
     y="13"
     width="1"
     height="1"
     id="rect270"
     style="fill:#ffffff" />
  <rect
     x="25"
     y="13"
     width="1"
     height="1"
     id="rect272"
     style="fill:#ffffff" />
  <rect
     x="27"
     y="13"
     width="1"
     height="1"
     id="rect274"
     style="fill:#ffffff" />
  <rect
     x="28"
     y="13"
     width="1"
     height="1"
     id="rect276"
     style="fill:#ffffff" />
  <rect
     x="4"
     y="14"
     width="1"
     height="1"
     id="rect278"
     style="fill:#ffffff" />
  <rect
     x="5"
     y="14"
     width="1"
     height="1"
     id="rect280"
     style="fill:#ffffff" />
  <rect
     x="6"
     y="14"
     width="1"
     height="1"
     id="rect282"
     style="fill:#ffffff" />
  <rect
     x="9"
     y="14"
     width="1"
     height="1"
     id="rect284"
     style="fill:#ffffff" />
  <rect
     x="10"
     y="14"
     width="1"
     height="1"
     id="rect286"
     style="fill:#ffffff" />
  <rect
     x="15"
     y="14"
     width="1"
     height="1"
     id="rect288"
     style="fill:#ffffff" />
  <rect
     x="19"
     y="14"
     width="1"
     height="1"
     id="rect290"
     style="fill:#ffffff" />
  <rect
     x="20"
     y="14"
     width="1"
     height="1"
     id="rect292"
     style="fill:#ffffff" />
  <rect
     x="21"
     y="14"
     width="1"
     height="1"
     id="rect294"
     style="fill:#ffffff" />
  <rect
     x="22"
     y="14"
     width="1"
     height="1"
     id="rect296"
     style="fill:#ffffff" />
  <rect
     x="23"
     y="14"
     width="1"
     height="1"
     id="rect298"
     style="fill:#ffffff" />
  <rect
     x="25"
     y="14"
     width="1"
     height="1"
     id="rect300"
     style="fill:#ffffff" />
  <rect
     x="26"
     y="14"
     width="1"
     height="1"
     id="rect302"
     style="fill:#ffffff" />
  <rect
     x="28"
     y="14"
     width="1"
     height="1"
     id="rect304"
     style="fill:#ffffff" />
  <rect
     x="4"
     y="15"
     width="1"
     height="1"
     id="rect306"
     style="fill:#ffffff" />
  <rect
     x="6"
     y="15"
     width="1"
     height="1"
     id="rect308"
     style="fill:#ffffff" />
  <rect
     x="7"
     y="15"
     width="1"
     height="1"
     id="rect310"
     style="fill:#ffffff" />
  <rect
     x="8"
     y="15"
     width="1"
     height="1"
     id="rect312"
     style="fill:#ffffff" />
  <rect
     x="11"
     y="15"
     width="1"
     height="1"
     id="rect314"
     style="fill:#ffffff" />
  <rect
     x="12"
     y="15"
     width="1"
     height="1"
     id="rect316"
     style="fill:#ffffff" />
  <rect
     x="13"
     y="15"
     width="1"
     height="1"
     id="rect318"
     style="fill:#ffffff" />
  <rect
     x="17"
     y="15"
     width="1"
     height="1"
     id="rect320"
     style="fill:#ffffff" />
  <rect
     x="19"
     y="15"
     width="1"
     height="1"
     id="rect322"
     style="fill:#ffffff" />
  <rect
     x="21"
     y="15"
     width="1"
     height="1"
     id="rect324"
     style="fill:#ffffff" />
  <rect
     x="23"
     y="15"
     width="1"
     height="1"
     id="rect326"
     style="fill:#ffffff" />
  <rect
     x="24"
     y="15"
     width="1"
     height="1"
     id="rect328"
     style="fill:#ffffff" />
  <rect
     x="25"
     y="15"
     width="1"
     height="1"
     id="rect330"
     style="fill:#ffffff" />
  <rect
     x="5"
     y="16"
     width="1"
     height="1"
     id="rect332"
     style="fill:#ffffff" />
  <rect
     x="9"
     y="16"
     width="1"
     height="1"
     id="rect334"
     style="fill:#ffffff" />
  <rect
     x="10"
     y="16"
     width="1"
     height="1"
     id="rect336"
     style="fill:#ffffff" />
  <rect
     x="11"
     y="16"
     width="1"
     height="1"
     id="rect338"
     style="fill:#ffffff" />
  <rect
     x="13"
     y="16"
     width="1"
     height="1"
     id="rect340"
     style="fill:#ffffff" />
  <rect
     x="15"
     y="16"
     width="1"
     height="1"
     id="rect342"
     style="fill:#ffffff" />
  <rect
     x="16"
     y="16"
     width="1"
     height="1"
     id="rect344"
     style="fill:#ffffff" />
  <rect
     x="17"
     y="16"
     width="1"
     height="1"
     id="rect346"
     style="fill:#ffffff" />
  <rect
     x="19"
     y="16"
     width="1"
     height="1"
     id="rect348"
     style="fill:#ffffff" />
  <rect
     x="22"
     y="16"
     width="1"
     height="1"
     id="rect350"
     style="fill:#ffffff" />
  <rect
     x="23"
     y="16"
     width="1"
     height="1"
     id="rect352"
     style="fill:#ffffff" />
  <rect
     x="28"
     y="16"
     width="1"
     height="1"
     id="rect354"
     style="fill:#ffffff" />
  <rect
     x="5"
     y="17"
     width="1"
     height="1"
     id="rect356"
     style="fill:#ffffff" />
  <rect
     x="7"
     y="17"
     width="1"
     height="1"
     id="rect358"
     style="fill:#ffffff" />
  <rect
     x="9"
     y="17"
     width="1"
     height="1"
     id="rect360"
     style="fill:#ffffff" />
  <rect
     x="11"
     y="17"
     width="1"
     height="1"
     id="rect362"
     style="fill:#ffffff" />
  <rect
     x="12"
     y="17"
     width="1"
     height="1"
     id="rect364"
     style="fill:#ffffff" />
  <rect
     x="13"
     y="17"
     width="1"
     height="1"
     id="rect366"
     style="fill:#ffffff" />
  <rect
     x="16"
     y="17"
     width="1"
     height="1"
     id="rect368"
     style="fill:#ffffff" />
  <rect
     x="19"
     y="17"
     width="1"
     height="1"
     id="rect370"
     style="fill:#ffffff" />
  <rect
     x="20"
     y="17"
     width="1"
     height="1"
     id="rect372"
     style="fill:#ffffff" />
  <rect
     x="21"
     y="17"
     width="1"
     height="1"
     id="rect374"
     style="fill:#ffffff" />
  <rect
     x="22"
     y="17"
     width="1"
     height="1"
     id="rect376"
     style="fill:#ffffff" />
  <rect
     x="23"
     y="17"
     width="1"
     height="1"
     id="rect378"
     style="fill:#ffffff" />
  <rect
     x="27"
     y="17"
     width="1"
     height="1"
     id="rect380"
     style="fill:#ffffff" />
  <rect
     x="28"
     y="17"
     width="1"
     height="1"
     id="rect382"
     style="fill:#ffffff" />
  <rect
     x="4"
     y="18"
     width="1"
     height="1"
     id="rect384"
     style="fill:#ffffff" />
  <rect
     x="5"
     y="18"
     width="1"
     height="1"
     id="rect386"
     style="fill:#ffffff" />
  <rect
     x="6"
     y="18"
     width="1"
     height="1"
     id="rect388"
     style="fill:#ffffff" />
  <rect
     x="7"
     y="18"
     width="1"
     height="1"
     id="rect390"
     style="fill:#ffffff" />
  <rect
     x="9"
     y="18"
     width="1"
     height="1"
     id="rect392"
     style="fill:#ffffff" />
  <rect
     x="10"
     y="18"
     width="1"
     height="1"
     id="rect394"
     style="fill:#ffffff" />
  <rect
     x="11"
     y="18"
     width="1"
     height="1"
     id="rect396"
     style="fill:#ffffff" />
  <rect
     x="14"
     y="18"
     width="1"
     height="1"
     id="rect398"
     style="fill:#ffffff" />
  <rect
     x="16"
     y="18"
     width="1"
     height="1"
     id="rect400"
     style="fill:#ffffff" />
  <rect
     x="17"
     y="18"
     width="1"
     height="1"
     id="rect402"
     style="fill:#ffffff" />
  <rect
     x="18"
     y="18"
     width="1"
     height="1"
     id="rect404"
     style="fill:#ffffff" />
  <rect
     x="19"
     y="18"
     width="1"
     height="1"
     id="rect406"
     style="fill:#ffffff" />
  <rect
     x="22"
     y="18"
     width="1"
     height="1"
     id="rect408"
     style="fill:#ffffff" />
  <rect
     x="25"
     y="18"
     width="1"
     height="1"
     id="rect410"
     style="fill:#ffffff" />
  <rect
     x="26"
     y="18"
     width="1"
     height="1"
     id="rect412"
     style="fill:#ffffff" />
  <rect
     x="28"
     y="18"
     width="1"
     height="1"
     id="rect414"
     style="fill:#ffffff" />
  <rect
     x="7"
     y="19"
     width="1"
     height="1"
     id="rect416"
     style="fill:#ffffff" />
  <rect
     x="8"
     y="19"
     width="1"
     height="1"
     id="rect418"
     style="fill:#ffffff" />
  <rect
     x="12"
     y="19"
     width="1"
     height="1"
     id="rect420"
     style="fill:#ffffff" />
  <rect
     x="13"
     y="19"
     width="1"
     height="1"
     id="rect422"
     style="fill:#ffffff" />
  <rect
     x="15"
     y="19"
     width="1"
     height="1"
     id="rect424"
     style="fill:#ffffff" />
  <rect
     x="16"
     y="19"
     width="1"
     height="1"
     id="rect426"
     style="fill:#ffffff" />
  <rect
     x="18"
     y="19"
     width="1"
     height="1"
     id="rect428"
     style="fill:#ffffff" />
  <rect
     x="20"
     y="19"
     width="1"
     height="1"
     id="rect430"
     style="fill:#ffffff" />
  <rect
     x="21"
     y="19"
     width="1"
     height="1"
     id="rect432"
     style="fill:#ffffff" />
  <rect
     x="23"
     y="19"
     width="1"
     height="1"
     id="rect434"
     style="fill:#ffffff" />
  <rect
     x="24"
     y="19"
     width="1"
     height="1"
     id="rect436"
     style="fill:#ffffff" />
  <rect
     x="25"
     y="19"
     width="1"
     height="1"
     id="rect438"
     style="fill:#ffffff" />
  <rect
     x="4"
     y="20"
     width="1"
     height="1"
     id="rect440"
     style="fill:#ffffff" />
  <rect
     x="5"
     y="20"
     width="1"
     height="1"
     id="rect442"
     style="fill:#ffffff" />
  <rect
     x="6"
     y="20"
     width="1"
     height="1"
     id="rect444"
     style="fill:#ffffff" />
  <rect
     x="8"
     y="20"
     width="1"
     height="1"
     id="rect446"
     style="fill:#ffffff" />
  <rect
     x="10"
     y="20"
     width="1"
     height="1"
     id="rect448"
     style="fill:#ffffff" />
  <rect
     x="11"
     y="20"
     width="1"
     height="1"
     id="rect450"
     style="fill:#ffffff" />
  <rect
     x="13"
     y="20"
     width="1"
     height="1"
     id="rect452"
     style="fill:#ffffff" />
  <rect
     x="14"
     y="20"
     width="1"
     height="1"
     id="rect454"
     style="fill:#ffffff" />
  <rect
     x="17"
     y="20"
     width="1"
     height="1"
     id="rect456"
     style="fill:#ffffff" />
  <rect
     x="18"
     y="20"
     width="1"
     height="1"
     id="rect458"
     style="fill:#ffffff" />
  <rect
     x="19"
     y="20"
     width="1"
     height="1"
     id="rect460"
     style="fill:#ffffff" />
  <rect
     x="20"
     y="20"
     width="1"
     height="1"
     id="rect462"
     style="fill:#ffffff" />
  <rect
     x="21"
     y="20"
     width="1"
     height="1"
     id="rect464"
     style="fill:#ffffff" />
  <rect
     x="22"
     y="20"
     width="1"
     height="1"
     id="rect466"
     style="fill:#ffffff" />
  <rect
     x="23"
     y="20"
     width="1"
     height="1"
     id="rect468"
     style="fill:#ffffff" />
  <rect
     x="24"
     y="20"
     width="1"
     height="1"
     id="rect470"
     style="fill:#ffffff" />
  <rect
     x="27"
     y="20"
     width="1"
     height="1"
     id="rect472"
     style="fill:#ffffff" />
  <rect
     x="12"
     y="21"
     width="1"
     height="1"
     id="rect474"
     style="fill:#ffffff" />
  <rect
     x="17"
     y="21"
     width="1"
     height="1"
     id="rect476"
     style="fill:#ffffff" />
  <rect
     x="18"
     y="21"
     width="1"
     height="1"
     id="rect478"
     style="fill:#ffffff" />
  <rect
     x="19"
     y="21"
     width="1"
     height="1"
     id="rect480"
     style="fill:#ffffff" />
  <rect
     x="20"
     y="21"
     width="1"
     height="1"
     id="rect482"
     style="fill:#ffffff" />
  <rect
     x="24"
     y="21"
     width="1"
     height="1"
     id="rect484"
     style="fill:#ffffff" />
  <rect
     x="28"
     y="21"
     width="1"
     height="1"
     id="rect486"
     style="fill:#ffffff" />
  <rect
     x="4"
     y="22"
     width="1"
     height="1"
     id="rect488"
     style="fill:#ffffff" />
  <rect
     x="5"
     y="22"
     width="1"
     height="1"
     id="rect490"
     style="fill:#ffffff" />
  <rect
     x="6"
     y="22"
     width="1"
     height="1"
     id="rect492"
     style="fill:#ffffff" />
  <rect
     x="7"
     y="22"
     width="1"
     height="1"
     id="rect494"
     style="fill:#ffffff" />
  <rect
     x="8"
     y="22"
     width="1"
     height="1"
     id="rect496"
     style="fill:#ffffff" />
  <rect
     x="9"
     y="22"
     width="1"
     height="1"
     id="rect498"
     style="fill:#ffffff" />
  <rect
     x="10"
     y="22"
     width="1"
     height="1"
     id="rect500"
     style="fill:#ffffff" />
  <rect
     x="14"
     y="22"
     width="1"
     height="1"
     id="rect502"
     style="fill:#ffffff" />
  <rect
     x="15"
     y="22"
     width="1"
     height="1"
     id="rect504"
     style="fill:#ffffff" />
  <rect
     x="20"
     y="22"
     width="1"
     height="1"
     id="rect506"
     style="fill:#ffffff" />
  <rect
     x="22"
     y="22"
     width="1"
     height="1"
     id="rect508"
     style="fill:#ffffff" />
  <rect
     x="24"
     y="22"
     width="1"
     height="1"
     id="rect510"
     style="fill:#ffffff" />
  <rect
     x="28"
     y="22"
     width="1"
     height="1"
     id="rect512"
     style="fill:#ffffff" />
  <rect
     x="4"
     y="23"
     width="1"
     height="1"
     id="rect514"
     style="fill:#ffffff" />
  <rect
     x="10"
     y="23"
     width="1"
     height="1"
     id="rect516"
     style="fill:#ffffff" />
  <rect
     x="12"
     y="23"
     width="1"
     height="1"
     id="rect518"
     style="fill:#ffffff" />
  <rect
     x="13"
     y="23"
     width="1"
     height="1"
     id="rect520"
     style="fill:#ffffff" />
  <rect
     x="17"
     y="23"
     width="1"
     height="1"
     id="rect522"
     style="fill:#ffffff" />
  <rect
     x="19"
     y="23"
     width="1"
     height="1"
     id="rect524"
     style="fill:#ffffff" />
  <rect
     x="20"
     y="23"
     width="1"
     height="1"
     id="rect526"
     style="fill:#ffffff" />
  <rect
     x="24"
     y="23"
     width="1"
     height="1"
     id="rect528"
     style="fill:#ffffff" />
  <rect
     x="27"
     y="23"
     width="1"
     height="1"
     id="rect530"
     style="fill:#ffffff" />
  <rect
     x="28"
     y="23"
     width="1"
     height="1"
     id="rect532"
     style="fill:#ffffff" />
  <rect
     x="4"
     y="24"
     width="1"
     height="1"
     id="rect534"
     style="fill:#ffffff" />
  <rect
     x="6"
     y="24"
     width="1"
     height="1"
     id="rect536"
     style="fill:#ffffff" />
  <rect
     x="7"
     y="24"
     width="1"
     height="1"
     id="rect538"
     style="fill:#ffffff" />
  <rect
     x="8"
     y="24"
     width="1"
     height="1"
     id="rect540"
     style="fill:#ffffff" />
  <rect
     x="10"
     y="24"
     width="1"
     height="1"
     id="rect542"
     style="fill:#ffffff" />
  <rect
     x="13"
     y="24"
     width="1"
     height="1"
     id="rect544"
     style="fill:#ffffff" />
  <rect
     x="14"
     y="24"
     width="1"
     height="1"
     id="rect546"
     style="fill:#ffffff" />
  <rect
     x="15"
     y="24"
     width="1"
     height="1"
     id="rect548"
     style="fill:#ffffff" />
  <rect
     x="16"
     y="24"
     width="1"
     height="1"
     id="rect550"
     style="fill:#ffffff" />
  <rect
     x="17"
     y="24"
     width="1"
     height="1"
     id="rect552"
     style="fill:#ffffff" />
  <rect
     x="19"
     y="24"
     width="1"
     height="1"
     id="rect554"
     style="fill:#ffffff" />
  <rect
     x="20"
     y="24"
     width="1"
     height="1"
     id="rect556"
     style="fill:#ffffff" />
  <rect
     x="21"
     y="24"
     width="1"
     height="1"
     id="rect558"
     style="fill:#ffffff" />
  <rect
     x="22"
     y="24"
     width="1"
     height="1"
     id="rect560"
     style="fill:#ffffff" />
  <rect
     x="23"
     y="24"
     width="1"
     height="1"
     id="rect562"
     style="fill:#ffffff" />
  <rect
     x="24"
     y="24"
     width="1"
     height="1"
     id="rect564"
     style="fill:#ffffff" />
  <rect
     x="27"
     y="24"
     width="1"
     height="1"
     id="rect566"
     style="fill:#ffffff" />
  <rect
     x="28"
     y="24"
     width="1"
     height="1"
     id="rect568"
     style="fill:#ffffff" />
  <rect
     x="4"
     y="25"
     width="1"
     height="1"
     id="rect570"
     style="fill:#ffffff" />
  <rect
     x="6"
     y="25"
     width="1"
     height="1"
     id="rect572"
     style="fill:#ffffff" />
  <rect
     x="7"
     y="25"
     width="1"
     height="1"
     id="rect574"
     style="fill:#ffffff" />
  <rect
     x="8"
     y="25"
     width="1"
     height="1"
     id="rect576"
     style="fill:#ffffff" />
  <rect
     x="10"
     y="25"
     width="1"
     height="1"
     id="rect578"
     style="fill:#ffffff" />
  <rect
     x="13"
     y="25"
     width="1"
     height="1"
     id="rect580"
     style="fill:#ffffff" />
  <rect
     x="16"
     y="25"
     width="1"
     height="1"
     id="rect582"
     style="fill:#ffffff" />
  <rect
     x="21"
     y="25"
     width="1"
     height="1"
     id="rect584"
     style="fill:#ffffff" />
  <rect
     x="24"
     y="25"
     width="1"
     height="1"
     id="rect586"
     style="fill:#ffffff" />
  <rect
     x="26"
     y="25"
     width="1"
     height="1"
     id="rect588"
     style="fill:#ffffff" />
  <rect
     x="27"
     y="25"
     width="1"
     height="1"
     id="rect590"
     style="fill:#ffffff" />
  <rect
     x="4"
     y="26"
     width="1"
     height="1"
     id="rect592"
     style="fill:#ffffff" />
  <rect
     x="6"
     y="26"
     width="1"
     height="1"
     id="rect594"
     style="fill:#ffffff" />
  <rect
     x="7"
     y="26"
     width="1"
     height="1"
     id="rect596"
     style="fill:#ffffff" />
  <rect
     x="8"
     y="26"
     width="1"
     height="1"
     id="rect598"
     style="fill:#ffffff" />
  <rect
     x="10"
     y="26"
     width="1"
     height="1"
     id="rect600"
     style="fill:#ffffff" />
  <rect
     x="12"
     y="26"
     width="1"
     height="1"
     id="rect602"
     style="fill:#ffffff" />
  <rect
     x="14"
     y="26"
     width="1"
     height="1"
     id="rect604"
     style="fill:#ffffff" />
  <rect
     x="16"
     y="26"
     width="1"
     height="1"
     id="rect606"
     style="fill:#ffffff" />
  <rect
     x="17"
     y="26"
     width="1"
     height="1"
     id="rect608"
     style="fill:#ffffff" />
  <rect
     x="18"
     y="26"
     width="1"
     height="1"
     id="rect610"
     style="fill:#ffffff" />
  <rect
     x="20"
     y="26"
     width="1"
     height="1"
     id="rect612"
     style="fill:#ffffff" />
  <rect
     x="21"
     y="26"
     width="1"
     height="1"
     id="rect614"
     style="fill:#ffffff" />
  <rect
     x="23"
     y="26"
     width="1"
     height="1"
     id="rect616"
     style="fill:#ffffff" />
  <rect
     x="24"
     y="26"
     width="1"
     height="1"
     id="rect618"
     style="fill:#ffffff" />
  <rect
     x="25"
     y="26"
     width="1"
     height="1"
     id="rect620"
     style="fill:#ffffff" />
  <rect
     x="27"
     y="26"
     width="1"
     height="1"
     id="rect622"
     style="fill:#ffffff" />
  <rect
     x="28"
     y="26"
     width="1"
     height="1"
     id="rect624"
     style="fill:#ffffff" />
  <rect
     x="4"
     y="27"
     width="1"
     height="1"
     id="rect626"
     style="fill:#ffffff" />
  <rect
     x="10"
     y="27"
     width="1"
     height="1"
     id="rect628"
     style="fill:#ffffff" />
  <rect
     x="12"
     y="27"
     width="1"
     height="1"
     id="rect630"
     style="fill:#ffffff" />
  <rect
     x="13"
     y="27"
     width="1"
     height="1"
     id="rect632"
     style="fill:#ffffff" />
  <rect
     x="15"
     y="27"
     width="1"
     height="1"
     id="rect634"
     style="fill:#ffffff" />
  <rect
     x="16"
     y="27"
     width="1"
     height="1"
     id="rect636"
     style="fill:#ffffff" />
  <rect
     x="18"
     y="27"
     width="1"
     height="1"
     id="rect638"
     style="fill:#ffffff" />
  <rect
     x="19"
     y="27"
     width="1"
     height="1"
     id="rect640"
     style="fill:#ffffff" />
  <rect
     x="20"
     y="27"
     width="1"
     height="1"
     id="rect642"
     style="fill:#ffffff" />
  <rect
     x="21"
     y="27"
     width="1"
     height="1"
     id="rect644"
     style="fill:#ffffff" />
  <rect
     x="23"
     y="27"
     width="1"
     height="1"
     id="rect646"
     style="fill:#ffffff" />
  <rect
     x="24"
     y="27"
     width="1"
     height="1"
     id="rect648"
     style="fill:#ffffff" />
  <rect
     x="4"
     y="28"
     width="1"
     height="1"
     id="rect650"
     style="fill:#ffffff" />
  <rect
     x="5"
     y="28"
     width="1"
     height="1"
     id="rect652"
     style="fill:#ffffff" />
  <rect
     x="6"
     y="28"
     width="1"
     height="1"
     id="rect654"
     style="fill:#ffffff" />
  <rect
     x="7"
     y="28"
     width="1"
     height="1"
     id="rect656"
     style="fill:#ffffff" />
  <rect
     x="8"
     y="28"
     width="1"
     height="1"
     id="rect658"
     style="fill:#ffffff" />
  <rect
     x="9"
     y="28"
     width="1"
     height="1"
     id="rect660"
     style="fill:#ffffff" />
  <rect
     x="10"
     y="28"
     width="1"
     height="1"
     id="rect662"
     style="fill:#ffffff" />
  <rect
     x="12"
     y="28"
     width="1"
     height="1"
     id="rect664"
     style="fill:#ffffff" />
  <rect
     x="13"
     y="28"
     width="1"
     height="1"
     id="rect666"
     style="fill:#ffffff" />
  <rect
     x="14"
     y="28"
     width="1"
     height="1"
     id="rect668"
     style="fill:#ffffff" />
  <rect
     x="17"
     y="28"
     width="1"
     height="1"
     id="rect670"
     style="fill:#ffffff" />
  <rect
     x="18"
     y="28"
     width="1"
     height="1"
     id="rect672"
     style="fill:#ffffff" />
  <rect
     x="20"
     y="28"
     width="1"
     height="1"
     id="rect674"
     style="fill:#ffffff" />
  <rect
     x="25"
     y="28"
     width="1"
     height="1"
     id="rect676"
     style="fill:#ffffff" />
  <rect
     x="28"
     y="28"
     width="1"
     height="1"
     id="rect678"
     style="fill:#ffffff" />
</svg>
